<?xml version="1.0" standalone="no"?>
<!DOCTYPE svg PUBLIC "-//W3C//DTD SVG 20010904//EN"
 "http://www.w3.org/TR/2001/REC-SVG-20010904/DTD/svg10.dtd">
<svg version="1.0" xmlns="http://www.w3.org/2000/svg"
 width="1024.000000pt" height="1024.000000pt" viewBox="0 0 1024.000000 1024.000000"
 preserveAspectRatio="xMidYMid meet">
<metadata>
Created by potrace 1.11, written by Peter Selinger 2001-2013
</metadata>
<g transform="translate(0.000000,1024.000000) scale(0.100000,-0.100000)"
fill="#000000" stroke="none">
<path d="M1495 8953 c-79 -10 -182 -35 -243 -59 -282 -111 -498 -355 -580
-653 l-27 -96 -3 -872 -3 -873 4481 0 4481 0 -4 873 c-3 867 -3 872 -25 957
-80 301 -288 540 -574 658 -155 64 -158 65 -765 69 l-552 4 -3 -518 -3 -518
-26 -55 c-33 -70 -89 -126 -159 -159 l-55 -26 -395 0 -395 0 -55 26 c-70 33
-126 89 -159 159 l-26 55 -3 518 -3 517 -1279 0 -1279 0 -3 -517 -3 -518 -26
-55 c-33 -70 -89 -126 -159 -159 l-55 -26 -395 0 -395 0 -55 26 c-70 33 -126
89 -159 159 l-26 55 -3 518 -3 517 -517 -1 c-284 -1 -530 -4 -547 -6z"/>
<path d="M5040 5105 c-85 -27 -102 -54 -360 -576 -132 -266 -246 -495 -253
-509 -10 -19 -24 -26 -62 -32 -740 -106 -1080 -160 -1113 -175 -45 -22 -91
-69 -113 -118 -26 -55 -25 -147 1 -201 18 -37 224 -243 793 -794 l48 -46 -36
-210 c-20 -115 -52 -299 -71 -409 -90 -522 -88 -510 -75 -573 11 -48 21 -65
65 -107 71 -70 154 -92 237 -63 19 6 153 74 299 151 587 310 715 377 720 377
4 0 65 -31 136 -68 71 -38 235 -124 364 -192 129 -68 292 -153 361 -190 154
-83 187 -94 254 -87 62 6 101 25 144 68 87 87 87 110 1 609 -114 659 -118 684
-111 695 3 6 187 188 409 404 226 222 411 410 421 430 42 83 33 174 -24 252
-61 84 -9 72 -900 204 -126 18 -256 37 -289 41 l-58 7 -253 511 c-271 552
-283 570 -373 600 -55 19 -102 19 -162 1z"/>
</g>
</svg>
